<svg width="260" height="47" viewBox="0 0 260 47" fill="none" xmlns="http://www.w3.org/2000/svg">
<path d="M56.658 17.2119H62.7225V40.286H76.6926L75.9995 45.2603H56.658V17.2119Z" fill="url(#paint0_linear_351_2018)"/>
<path d="M99.5932 33.1674H86.1791V40.2932H100.979L100.257 45.2676H80.295V17.2119H100.185V22.1863H86.1791V28.193H99.5932V33.1674Z" fill="url(#paint1_linear_351_2018)"/>
<path d="M111.592 38.7843L109.405 45.2603H103.441L112.964 17.2119H120.581L130.515 45.2603H124.14L121.837 38.7843H111.592ZM120.53 33.8172C118.538 27.897 117.267 24.1139 116.596 21.5943H116.552C115.859 24.3594 114.459 28.7562 112.863 33.8172H120.53Z" fill="url(#paint2_linear_351_2018)"/>
<path d="M140.045 34.041V45.2676H134.118V17.2119H146.442C152.557 17.2119 155.849 20.5835 155.849 24.9153C155.849 28.6768 153.799 30.7199 151.77 31.5502C153.156 32.0628 155.257 33.5067 155.257 38.5316V39.9178C155.257 41.8021 155.271 43.9536 155.661 45.2676H149.914C149.424 44.0474 149.33 41.9465 149.33 38.972V38.5605C149.33 35.4921 148.557 34.041 144.038 34.041H140.045ZM140.045 29.211H145.128C148.449 29.211 149.727 27.9476 149.727 25.6012C149.727 23.3198 148.239 22.0419 145.272 22.0419H140.045V29.211Z" fill="url(#paint3_linear_351_2018)"/>
<path d="M161.256 45.2603V17.2119H168.772C172.274 23.5075 178.75 34.8712 180.042 37.9252H180.121C179.804 35.0012 179.811 30.1279 179.811 25.5218V17.2119H185.305V45.2603H178.179C175.169 39.7806 167.992 26.7347 166.599 23.493H166.52C166.722 25.9477 166.794 31.709 166.794 36.7339V45.2676H161.256V45.2603Z" fill="url(#paint4_linear_351_2018)"/>
<path d="M198.077 17.2119V45.2603H192.012V17.2119H198.077Z" fill="url(#paint5_linear_351_2018)"/>
<path d="M204.784 45.2603V17.2119H212.3C215.801 23.5075 222.277 34.8712 223.57 37.9252H223.649C223.331 35.0012 223.339 30.1279 223.339 25.5218V17.2119H228.833V45.2603H221.7C218.689 39.7806 211.513 26.7347 210.119 23.493H210.04C210.242 25.9477 210.314 31.709 210.314 36.7339V45.2676H204.784V45.2603Z" fill="url(#paint6_linear_351_2018)"/>
<path d="M259.906 45.2602H255.459C255.221 44.4011 255.069 43.4337 254.997 42.4951C253.445 44.5888 250.701 45.7295 246.802 45.7295C238.659 45.7295 234.11 39.5784 234.11 31.5862C234.11 23.1536 239.012 16.8003 247.856 16.8003C255.076 16.8003 259.321 20.8722 260 25.6588H253.935C253.358 23.7817 251.878 21.5581 247.777 21.5581C242.016 21.5581 240.377 26.3736 240.377 31.3191C240.377 36.1418 242.254 40.8996 247.813 40.8996C252.997 40.8996 253.957 37.2969 253.957 34.7917V34.539H247.806V29.5647H259.906V45.2602Z" fill="url(#paint7_linear_351_2018)"/>
<path d="M45.3229 33.6004C44.045 37.925 39.5904 40.5313 35.1576 39.4628C34.7533 39.3689 34.3706 39.2318 33.9952 39.0874C32.6812 38.5603 31.5477 37.7373 30.6742 36.7049L45.0124 27.9258L50.6221 24.4892C49.6547 22.5399 48.2613 20.8216 46.5502 19.4426C44.8752 18.0998 42.8971 17.0818 40.6662 16.5403C32.5874 14.5982 24.458 19.5726 22.5159 27.6514C21.9817 29.8823 21.9889 32.1059 22.4221 34.2069C22.8697 36.3583 23.7649 38.3799 25.0572 40.127C25.8225 41.1594 26.725 42.0835 27.7357 42.8994C29.4107 44.2422 31.3889 45.2602 33.6198 45.8017C41.6986 47.7438 49.8279 42.7694 51.77 34.6906C52.196 32.9218 52.2826 31.1529 52.0805 29.4419L45.3229 33.6004ZM28.8692 29.1892C29.9666 24.6119 34.5728 21.7962 39.1428 22.9009C39.5471 22.9947 39.9298 23.1319 40.3052 23.2763L28.6815 30.3949C28.7176 29.9906 28.7754 29.5863 28.8692 29.1892Z" fill="#F06292"/>
<path d="M37.3668 13.7608C40.7745 13.7608 43.944 14.7283 46.6586 16.3743C45.655 14.2012 44.6659 12.1003 43.7563 9.97771C43.352 9.03915 42.8249 8.53378 41.7564 8.70705C41.2149 8.79369 40.6518 8.7648 40.1031 8.82256C34.0891 9.45789 28.5949 11.5805 23.4257 14.6272C20.5811 16.3021 17.982 18.2948 15.8667 20.865C15.419 21.4137 14.9931 21.9551 15.4696 22.7421C16.8269 25.0163 18.1481 27.3266 19.5415 29.7163C20.5234 20.7422 28.1257 13.7608 37.3668 13.7608Z" fill="url(#paint8_linear_351_2018)"/>
<path d="M15.094 24.5686C10.5601 25.5144 6.14164 26.4457 1.7232 27.3699C1.67988 27.2977 1.64378 27.2183 1.60046 27.1461C3.21767 25.5433 4.83488 23.9405 6.45209 22.3377C11.8813 16.9591 17.3105 11.5732 22.7685 6.22344C23.1729 5.82636 23.8154 5.53035 24.3858 5.45816C32.8761 4.39686 41.3809 3.37888 49.8784 2.36091C51.9216 2.11544 53.9648 1.89164 56.3689 1.62451C52.4703 4.67121 48.8316 7.52298 45.2145 10.3603C45.0701 10.252 44.9763 10.2159 44.9618 10.1654C44.377 7.92728 42.8537 7.50855 40.7383 7.70348C34.3995 8.27383 28.602 10.4108 23.1512 13.5875C20.2633 15.2697 17.6642 17.2984 15.3973 19.782C14.1916 21.1104 13.8162 22.3883 14.8486 23.9405C14.9496 24.0921 14.9785 24.2798 15.094 24.5686Z" fill="url(#paint9_linear_351_2018)"/>
<path d="M56.5205 0.447616C56.2101 0.57757 55.9141 0.779724 55.5892 0.823042C51.7122 1.29954 47.8281 1.75438 43.9439 2.21643C37.1718 3.03226 30.3998 3.83365 23.6277 4.69279C23.1151 4.75777 22.5881 5.19094 22.191 5.5808C15.1663 12.49 8.16317 19.4281 1.16009 26.3518C0.929058 26.5828 0.683589 26.8066 0.43812 27.0377C-0.392142 26.6406 0.156553 26.3085 0.466999 25.998C2.48129 23.991 4.5028 21.9983 6.52431 19.9985C11.6719 14.9158 16.8051 9.81875 21.9816 4.76498C22.4148 4.34624 23.0862 4.00692 23.6783 3.93472C31.9881 2.90953 40.2979 1.93487 48.615 0.945776C51.178 0.642549 53.7338 0.317666 56.2967 0C56.3762 0.158833 56.4483 0.303223 56.5205 0.447616Z" fill="url(#paint10_linear_351_2018)"/>
<path d="M9.03683 26.951C9.03683 29.3046 9.02961 31.6582 9.03683 34.0118C9.03683 35.0081 8.87077 35.9828 9.92485 36.7553C10.5891 37.239 10.3869 38.127 9.87431 38.8562C9.63606 39.1955 9.47723 39.7009 9.51332 40.1124C9.66494 41.6791 9.91041 43.2458 10.1342 44.8846C9.1379 44.8846 8.27154 44.8846 7.18859 44.8846C7.39074 43.3468 7.63621 41.8452 7.75894 40.329C7.80226 39.8164 7.62899 39.21 7.36908 38.7623C6.88536 37.9321 6.94312 37.1668 7.55679 36.4376C7.8889 36.0405 8.1849 35.4702 8.19934 34.972C8.26432 32.6112 8.21378 30.2431 8.24988 27.8823C8.2571 27.5285 8.48091 27.182 8.61086 26.8354C8.75526 26.8715 8.89243 26.9149 9.03683 26.951Z" fill="url(#paint11_linear_351_2018)"/>
<defs>
<linearGradient id="paint0_linear_351_2018" x1="66.6753" y1="17.2119" x2="66.6753" y2="45.2603" gradientUnits="userSpaceOnUse">
<stop stop-color="#735CF5"/>
<stop offset="1" stop-color="#5844E3"/>
</linearGradient>
<linearGradient id="paint1_linear_351_2018" x1="90.6372" y1="17.2119" x2="90.6372" y2="45.2676" gradientUnits="userSpaceOnUse">
<stop stop-color="#735CF5"/>
<stop offset="1" stop-color="#5844E3"/>
</linearGradient>
<linearGradient id="paint2_linear_351_2018" x1="116.978" y1="17.2119" x2="116.978" y2="45.2603" gradientUnits="userSpaceOnUse">
<stop stop-color="#735CF5"/>
<stop offset="1" stop-color="#5844E3"/>
</linearGradient>
<linearGradient id="paint3_linear_351_2018" x1="144.983" y1="17.2119" x2="144.983" y2="45.2676" gradientUnits="userSpaceOnUse">
<stop stop-color="#735CF5"/>
<stop offset="1" stop-color="#5844E3"/>
</linearGradient>
<linearGradient id="paint4_linear_351_2018" x1="173.281" y1="17.2119" x2="173.281" y2="45.2676" gradientUnits="userSpaceOnUse">
<stop stop-color="#735CF5"/>
<stop offset="1" stop-color="#5844E3"/>
</linearGradient>
<linearGradient id="paint5_linear_351_2018" x1="195.045" y1="17.2119" x2="195.045" y2="45.2603" gradientUnits="userSpaceOnUse">
<stop stop-color="#735CF5"/>
<stop offset="1" stop-color="#5844E3"/>
</linearGradient>
<linearGradient id="paint6_linear_351_2018" x1="216.808" y1="17.2119" x2="216.808" y2="45.2676" gradientUnits="userSpaceOnUse">
<stop stop-color="#735CF5"/>
<stop offset="1" stop-color="#5844E3"/>
</linearGradient>
<linearGradient id="paint7_linear_351_2018" x1="247.055" y1="16.8003" x2="247.055" y2="45.7295" gradientUnits="userSpaceOnUse">
<stop stop-color="#735CF5"/>
<stop offset="1" stop-color="#5844E3"/>
</linearGradient>
<linearGradient id="paint8_linear_351_2018" x1="30.9595" y1="8.67334" x2="30.9595" y2="29.7163" gradientUnits="userSpaceOnUse">
<stop stop-color="#735CF5"/>
<stop offset="1" stop-color="#5844E3"/>
</linearGradient>
<linearGradient id="paint9_linear_351_2018" x1="28.9847" y1="1.62451" x2="28.9847" y2="27.3699" gradientUnits="userSpaceOnUse">
<stop stop-color="#735CF5"/>
<stop offset="1" stop-color="#5844E3"/>
</linearGradient>
<linearGradient id="paint10_linear_351_2018" x1="28.2603" y1="0" x2="28.2603" y2="27.0377" gradientUnits="userSpaceOnUse">
<stop stop-color="#735CF5"/>
<stop offset="1" stop-color="#5844E3"/>
</linearGradient>
<linearGradient id="paint11_linear_351_2018" x1="8.69607" y1="26.8354" x2="8.69607" y2="44.8846" gradientUnits="userSpaceOnUse">
<stop stop-color="#735CF5"/>
<stop offset="1" stop-color="#5844E3"/>
</linearGradient>
</defs>
</svg>
